<svg xmlns="http://www.w3.org/2000/svg" version="1.1" xmlns:xlink="http://www.w3.org/1999/xlink" xmlns:svgjs="http://svgjs.dev/svgjs" width="2000" height="1065" viewBox="0 0 2000 1065"><g transform="matrix(1,0,0,1,-1.2121212121212466,-1.4984302285687363)"><svg viewBox="0 0 396 211" data-background-color="#191552" preserveAspectRatio="xMidYMid meet" height="1065" width="2000" xmlns="http://www.w3.org/2000/svg" xmlns:xlink="http://www.w3.org/1999/xlink"><g id="tight-bounds" transform="matrix(1,0,0,1,0.2400000000000091,0.29687209223286004)"><svg viewBox="0 0 395.52 210.40625581553428" height="210.40625581553428" width="395.52"><g><svg viewBox="0 0 395.52 210.40625581553428" height="210.40625581553428" width="395.52"><g transform="matrix(1,0,0,1,0,155.48556536674255)"><svg viewBox="0 0 395.52 54.92069044879172" height="54.92069044879172" width="395.52"><g id="textblocktransform"><svg viewBox="0 0 395.52 54.92069044879172" height="54.92069044879172" width="395.52" id="textblock"><g><svg viewBox="0 0 395.52 54.92069044879172" height="54.92069044879172" width="395.52"><g transform="matrix(1,0,0,1,0,0)"><svg width="395.52" viewBox="1.95 -35.7 260.68 36.2" height="54.92069044879172" data-palette-color="url(#a599969e-8193-4346-ad63-880e648464dc)"></svg></g></svg></g></svg></g></svg></g><g transform="matrix(1,0,0,1,132.98267423501767,0)"><svg viewBox="0 0 129.55465152996464 129.55465152996464" height="129.55465152996464" width="129.55465152996464"><g><svg></svg></g><g id="icon-0"><svg viewBox="0 0 129.55465152996464 129.55465152996464" height="129.55465152996464" width="129.55465152996464"><g></g><g transform="matrix(1,0,0,1,45.248033988292434,31.11695473708857)"><svg viewBox="0 0 39.058583553379776 67.3207420557875" height="67.3207420557875" width="39.058583553379776"><g><svg xmlns="http://www.w3.org/2000/svg" xmlns:xlink="http://www.w3.org/1999/xlink" version="1.1" x="0" y="0" viewBox="21.679106830508616 1 56.85827385947762 98" enable-background="new 0 0 100 100" xml:space="preserve" height="67.3207420557875" width="39.058583553379776" class="icon-dxe-0" data-fill-palette-color="quaternary" id="dxe-0"><g fill="#21232b" data-fill-palette-color="quaternary"><path fill-rule="evenodd" clip-rule="evenodd" d="M30.545 28.822C29.38 36.039 30.875 43.672 37.045 47.863 30.758 19.81 45.756 8.664 59.646 1 43.466 24.046 76.542 24.644 78.423 51.13 80.028 73.71 64.507 91.317 46.639 99 46.845 76.175 24.089 73.067 21.801 54.397 20.905 47.094 25.062 33.766 30.545 28.822" fill="#21232b" data-fill-palette-color="quaternary"></path></g></svg></g></svg></g></svg></g></svg></g><g></g></svg></g><defs></defs><mask id="8d63e891-c730-45d0-829b-c0a1f1f6dd4c"><g id="SvgjsG3924"><svg viewBox="0 0 395.52 210.40625581553428" height="210.40625581553428" width="395.52"><g><svg viewBox="0 0 395.52 210.40625581553428" height="210.40625581553428" width="395.52"><g transform="matrix(1,0,0,1,0,155.48556536674255)"><svg viewBox="0 0 395.52 54.92069044879172" height="54.92069044879172" width="395.52"><g id="SvgjsG3923"><svg viewBox="0 0 395.52 54.92069044879172" height="54.92069044879172" width="395.52" id="SvgjsSvg3922"><g><svg viewBox="0 0 395.52 54.92069044879172" height="54.92069044879172" width="395.52"><g transform="matrix(1,0,0,1,0,0)"><svg width="395.52" viewBox="1.95 -35.7 260.68 36.2" height="54.92069044879172" data-palette-color="url(#a599969e-8193-4346-ad63-880e648464dc)"><path d="M1.95-18L1.95-18Q1.95-21.25 3.08-24.38 4.2-27.5 6.38-30.08 8.55-32.65 11.7-34.18 14.85-35.7 18.85-35.7L18.85-35.7Q23.6-35.7 27-33.52 30.4-31.35 32.05-27.95L32.05-27.95 28.5-25.65Q27.45-27.9 25.83-29.23 24.2-30.55 22.33-31.1 20.45-31.65 18.65-31.65L18.65-31.65Q15.7-31.65 13.43-30.45 11.15-29.25 9.6-27.25 8.05-25.25 7.28-22.78 6.5-20.3 6.5-17.8L6.5-17.8Q6.5-15.05 7.43-12.5 8.35-9.95 10-8 11.65-6.05 13.9-4.9 16.15-3.75 18.8-3.75L18.8-3.75Q20.65-3.75 22.6-4.4 24.55-5.05 26.25-6.43 27.95-7.8 28.95-10L28.95-10 32.7-7.95Q31.6-5.3 29.3-3.45 27-1.6 24.18-0.65 21.35 0.3 18.6 0.3L18.6 0.3Q14.95 0.3 11.9-1.28 8.85-2.85 6.63-5.48 4.4-8.1 3.18-11.38 1.95-14.65 1.95-18ZM49.05 0.5L49.05 0.5Q46.1 0.5 43.7-0.58 41.3-1.65 39.55-3.53 37.8-5.4 36.85-7.85 35.9-10.3 35.9-13L35.9-13Q35.9-15.75 36.85-18.2 37.8-20.65 39.55-22.53 41.3-24.4 43.72-25.48 46.15-26.55 49.1-26.55L49.1-26.55Q52-26.55 54.4-25.48 56.8-24.4 58.57-22.53 60.35-20.65 61.3-18.2 62.25-15.75 62.25-13L62.25-13Q62.25-10.3 61.3-7.85 60.35-5.4 58.6-3.53 56.85-1.65 54.42-0.58 52 0.5 49.05 0.5ZM40.4-12.95L40.4-12.95Q40.4-10.25 41.57-8.05 42.75-5.85 44.7-4.58 46.65-3.3 49.05-3.3L49.05-3.3Q51.45-3.3 53.42-4.6 55.4-5.9 56.57-8.13 57.75-10.35 57.75-13.05L57.75-13.05Q57.75-15.75 56.57-17.95 55.4-20.15 53.42-21.45 51.45-22.75 49.05-22.75L49.05-22.75Q46.65-22.75 44.7-21.43 42.75-20.1 41.57-17.9 40.4-15.7 40.4-12.95ZM90.25-15.6L90.25 0 85.85 0 85.85-14.6Q85.85-18.75 84.57-20.68 83.3-22.6 80.7-22.6L80.7-22.6Q78.9-22.6 77.12-21.7 75.35-20.8 73.97-19.28 72.6-17.75 72-15.75L72-15.75 72 0 67.6 0 67.6-26.1 71.6-26.1 71.6-20.5Q72.65-22.35 74.3-23.7 75.95-25.05 78.05-25.8 80.15-26.55 82.45-26.55L82.45-26.55Q84.7-26.55 86.22-25.73 87.75-24.9 88.62-23.43 89.5-21.95 89.87-19.95 90.25-17.95 90.25-15.6L90.25-15.6ZM108.84 0L104.04 0 93.79-26.1 98.39-26.1 106.59-4.2 114.79-26.1 119.09-26.1 108.84 0ZM134.14 0.5L134.14 0.5Q131.19 0.5 128.77-0.58 126.34-1.65 124.57-3.53 122.79-5.4 121.82-7.85 120.84-10.3 120.84-13.05L120.84-13.05Q120.84-16.75 122.54-19.8 124.24-22.85 127.27-24.7 130.29-26.55 134.19-26.55L134.19-26.55Q138.14-26.55 141.07-24.68 143.99-22.8 145.62-19.78 147.24-16.75 147.24-13.25L147.24-13.25Q147.24-12.75 147.22-12.28 147.19-11.8 147.14-11.55L147.14-11.55 125.49-11.55Q125.69-9 126.92-7.03 128.14-5.05 130.09-3.93 132.04-2.8 134.29-2.8L134.29-2.8Q136.69-2.8 138.82-4 140.94-5.2 141.74-7.15L141.74-7.15 145.54-6.1Q144.69-4.2 143.02-2.7 141.34-1.2 139.07-0.35 136.79 0.5 134.14 0.5ZM125.34-14.6L125.34-14.6 143.14-14.6Q142.94-17.15 141.69-19.1 140.44-21.05 138.49-22.15 136.54-23.25 134.19-23.25L134.19-23.25Q131.89-23.25 129.94-22.15 127.99-21.05 126.77-19.1 125.54-17.15 125.34-14.6ZM165.94-26.25L165.94-22.25Q162.64-22.2 160.11-20.58 157.59-18.95 156.54-16.1L156.54-16.1 156.54 0 152.14 0 152.14-26.1 156.24-26.1 156.24-20.05Q157.59-22.75 159.81-24.43 162.04-26.1 164.49-26.3L164.49-26.3Q164.99-26.3 165.34-26.3 165.69-26.3 165.94-26.25L165.94-26.25ZM179.24 0.5L179.24 0.5Q175.99 0.5 173.14-0.58 170.29-1.65 168.24-3.8L168.24-3.8 169.94-6.9Q172.19-4.8 174.44-3.9 176.69-3 179.04-3L179.04-3Q181.74-3 183.44-4.03 185.14-5.05 185.14-7.05L185.14-7.05Q185.14-8.5 184.26-9.2 183.39-9.9 181.79-10.38 180.19-10.85 177.99-11.45L177.99-11.45Q175.29-12.25 173.44-13.15 171.59-14.05 170.64-15.4 169.69-16.75 169.69-18.8L169.69-18.8Q169.69-21.3 170.99-23.03 172.29-24.75 174.56-25.65 176.84-26.55 179.74-26.55L179.74-26.55Q182.64-26.55 184.99-25.65 187.34-24.75 189.04-23L189.04-23 187.04-19.95Q185.49-21.55 183.64-22.33 181.79-23.1 179.49-23.1L179.49-23.1Q178.14-23.1 176.84-22.78 175.54-22.45 174.69-21.63 173.84-20.8 173.84-19.3L173.84-19.3Q173.84-18.05 174.51-17.32 175.19-16.6 176.51-16.1 177.84-15.6 179.74-15L179.74-15Q182.69-14.15 184.86-13.3 187.04-12.45 188.24-11.1 189.44-9.75 189.44-7.35L189.44-7.35Q189.44-3.65 186.64-1.58 183.84 0.5 179.24 0.5ZM206.23 0.5L206.23 0.5Q203.28 0.5 200.86-0.58 198.43-1.65 196.66-3.53 194.88-5.4 193.91-7.85 192.93-10.3 192.93-13.05L192.93-13.05Q192.93-16.75 194.63-19.8 196.33-22.85 199.36-24.7 202.38-26.55 206.28-26.55L206.28-26.55Q210.23-26.55 213.16-24.68 216.08-22.8 217.71-19.78 219.33-16.75 219.33-13.25L219.33-13.25Q219.33-12.75 219.31-12.28 219.28-11.8 219.23-11.55L219.23-11.55 197.58-11.55Q197.78-9 199.01-7.03 200.23-5.05 202.18-3.93 204.13-2.8 206.38-2.8L206.38-2.8Q208.78-2.8 210.91-4 213.03-5.2 213.83-7.15L213.83-7.15 217.63-6.1Q216.78-4.2 215.11-2.7 213.43-1.2 211.16-0.35 208.88 0.5 206.23 0.5ZM197.43-14.6L197.43-14.6 215.23-14.6Q215.03-17.15 213.78-19.1 212.53-21.05 210.58-22.15 208.63-23.25 206.28-23.25L206.28-23.25Q203.98-23.25 202.03-22.15 200.08-21.05 198.86-19.1 197.63-17.15 197.43-14.6ZM220.53 0L235.08-35.5 238.88-35.5 253.38 0 248.58 0 244.38-10.4 229.48-10.4 225.33 0 220.53 0ZM230.38-13.9L243.38-13.9 236.98-30.3 230.38-13.9ZM262.63 0L258.13 0 258.13-35.5 262.63-35.5 262.63 0Z" opacity="1" transform="matrix(1,0,0,1,0,0)" fill="white" class="wordmark-text-0" id="SvgjsPath3921"></path></svg></g></svg></g></svg></g></svg></g><g transform="matrix(1,0,0,1,132.98267423501767,0)"><svg viewBox="0 0 129.55465152996464 129.55465152996464" height="129.55465152996464" width="129.55465152996464"><g><svg></svg></g><g id="SvgjsG3920"><svg viewBox="0 0 129.55465152996464 129.55465152996464" height="129.55465152996464" width="129.55465152996464"><g><path d="M0 64.777c0-35.776 29.002-64.777 64.777-64.777 35.776 0 64.777 29.002 64.778 64.777 0 35.776-29.002 64.777-64.778 64.778-35.776 0-64.777-29.002-64.777-64.778zM64.777 124.602c33.04 0 59.825-26.784 59.825-59.825 0-33.04-26.784-59.825-59.825-59.824-33.04 0-59.825 26.784-59.824 59.824 0 33.04 26.784 59.825 59.824 59.825z" fill="black" stroke="transparent"></path><ellipse rx="64.1295525073325" ry="64.1295525073325" cx="64.77732576498232" cy="64.77732576498232" fill="black" stroke="transparent" stroke-width="0" fill-opacity="1"></ellipse></g><g transform="matrix(1,0,0,1,45.248033988292434,31.11695473708857)"><svg viewBox="0 0 39.058583553379776 67.3207420557875" height="67.3207420557875" width="39.058583553379776"><g><svg xmlns="http://www.w3.org/2000/svg" xmlns:xlink="http://www.w3.org/1999/xlink" version="1.1" x="0" y="0" viewBox="21.679106830508616 1 56.85827385947762 98" enable-background="new 0 0 100 100" xml:space="preserve" height="67.3207420557875" width="39.058583553379776" class="icon-dxe-0" data-fill-palette-color="quaternary" id="SvgjsSvg3919"><g fill="black"><path fill-rule="evenodd" clip-rule="evenodd" d="M30.545 28.822C29.38 36.039 30.875 43.672 37.045 47.863 30.758 19.81 45.756 8.664 59.646 1 43.466 24.046 76.542 24.644 78.423 51.13 80.028 73.71 64.507 91.317 46.639 99 46.845 76.175 24.089 73.067 21.801 54.397 20.905 47.094 25.062 33.766 30.545 28.822" fill="black"></path></g></svg></g></svg></g></svg></g></svg></g><g></g></svg></g><defs><mask></mask></defs></svg><rect width="395.52" height="210.40625581553428" fill="black" stroke="none" visibility="hidden"></rect></g></mask><linearGradient x1="0" x2="1" y1="0.578" y2="0.595" id="a599969e-8193-4346-ad63-880e648464dc"><stop stop-color="#6ee2f5" offset="0"></stop><stop stop-color="#6454f0" offset="1"></stop></linearGradient><rect width="395.52" height="210.40625581553428" fill="url(#a599969e-8193-4346-ad63-880e648464dc)" mask="url(#8d63e891-c730-45d0-829b-c0a1f1f6dd4c)" data-fill-palette-color="primary"></rect><mask id="a62d395f-d024-4986-bae1-29b84a6f72b7"><g id="SvgjsG3935"><svg viewBox="0 0 395.52 210.40625581553428" height="210.40625581553428" width="395.52"><g><svg viewBox="0 0 395.52 210.40625581553428" height="210.40625581553428" width="395.52"><g transform="matrix(1,0,0,1,0,155.48556536674255)"><svg viewBox="0 0 395.52 54.92069044879172" height="54.92069044879172" width="395.52"><g id="SvgjsG3934"><svg viewBox="0 0 395.52 54.92069044879172" height="54.92069044879172" width="395.52" id="SvgjsSvg3933"><g><svg viewBox="0 0 395.52 54.92069044879172" height="54.92069044879172" width="395.52"><g transform="matrix(1,0,0,1,0,0)"><svg width="395.52" viewBox="1.95 -35.7 260.68 36.2" height="54.92069044879172" data-palette-color="url(#a599969e-8193-4346-ad63-880e648464dc)"></svg></g></svg></g></svg></g></svg></g><g transform="matrix(1,0,0,1,132.98267423501767,0)"><svg viewBox="0 0 129.55465152996464 129.55465152996464" height="129.55465152996464" width="129.55465152996464"><g><svg></svg></g><g id="SvgjsG3932"><svg viewBox="0 0 129.55465152996464 129.55465152996464" height="129.55465152996464" width="129.55465152996464"><g><path d="M0 64.777c0-35.776 29.002-64.777 64.777-64.777 35.776 0 64.777 29.002 64.778 64.777 0 35.776-29.002 64.777-64.778 64.778-35.776 0-64.777-29.002-64.777-64.778zM64.777 124.602c33.04 0 59.825-26.784 59.825-59.825 0-33.04-26.784-59.825-59.825-59.824-33.04 0-59.825 26.784-59.824 59.824 0 33.04 26.784 59.825 59.824 59.825z" fill="white" stroke="transparent"></path><ellipse rx="64.1295525073325" ry="64.1295525073325" cx="64.77732576498232" cy="64.77732576498232" fill="white" stroke="transparent" stroke-width="0" fill-opacity="1"></ellipse></g><g transform="matrix(1,0,0,1,45.248033988292434,31.11695473708857)"><svg viewBox="0 0 39.058583553379776 67.3207420557875" height="67.3207420557875" width="39.058583553379776"><g><svg xmlns="http://www.w3.org/2000/svg" xmlns:xlink="http://www.w3.org/1999/xlink" version="1.1" x="0" y="0" viewBox="21.679106830508616 1 56.85827385947762 98" enable-background="new 0 0 100 100" xml:space="preserve" height="67.3207420557875" width="39.058583553379776" class="icon-dxe-0" data-fill-palette-color="quaternary" id="SvgjsSvg3931"><g fill="black"><path fill-rule="evenodd" clip-rule="evenodd" d="M30.545 28.822C29.38 36.039 30.875 43.672 37.045 47.863 30.758 19.81 45.756 8.664 59.646 1 43.466 24.046 76.542 24.644 78.423 51.13 80.028 73.71 64.507 91.317 46.639 99 46.845 76.175 24.089 73.067 21.801 54.397 20.905 47.094 25.062 33.766 30.545 28.822" fill="black"></path></g></svg></g></svg></g></svg></g></svg></g><g></g></svg></g><defs><mask></mask></defs><mask><g id="SvgjsG3930"><svg viewBox="0 0 395.52 210.40625581553428" height="210.40625581553428" width="395.52"><g><svg viewBox="0 0 395.52 210.40625581553428" height="210.40625581553428" width="395.52"><g transform="matrix(1,0,0,1,0,155.48556536674255)"><svg viewBox="0 0 395.52 54.92069044879172" height="54.92069044879172" width="395.52"><g id="SvgjsG3929"><svg viewBox="0 0 395.52 54.92069044879172" height="54.92069044879172" width="395.52" id="SvgjsSvg3928"><g><svg viewBox="0 0 395.52 54.92069044879172" height="54.92069044879172" width="395.52"><g transform="matrix(1,0,0,1,0,0)"><svg width="395.52" viewBox="1.95 -35.7 260.68 36.2" height="54.92069044879172" data-palette-color="url(#a599969e-8193-4346-ad63-880e648464dc)"><path d="M1.95-18L1.95-18Q1.95-21.25 3.08-24.38 4.2-27.5 6.38-30.08 8.55-32.65 11.7-34.18 14.85-35.7 18.85-35.7L18.85-35.7Q23.6-35.7 27-33.52 30.4-31.35 32.05-27.95L32.05-27.95 28.5-25.65Q27.45-27.9 25.83-29.23 24.2-30.55 22.33-31.1 20.45-31.65 18.65-31.65L18.65-31.65Q15.7-31.65 13.43-30.45 11.15-29.25 9.6-27.25 8.05-25.25 7.28-22.78 6.5-20.3 6.5-17.8L6.5-17.8Q6.5-15.05 7.43-12.5 8.35-9.95 10-8 11.65-6.05 13.9-4.9 16.15-3.75 18.8-3.75L18.8-3.75Q20.65-3.75 22.6-4.4 24.55-5.05 26.25-6.43 27.95-7.8 28.95-10L28.95-10 32.7-7.95Q31.6-5.3 29.3-3.45 27-1.6 24.18-0.65 21.35 0.3 18.6 0.3L18.6 0.3Q14.95 0.3 11.9-1.28 8.85-2.85 6.63-5.48 4.4-8.1 3.18-11.38 1.95-14.65 1.95-18ZM49.05 0.5L49.05 0.5Q46.1 0.5 43.7-0.58 41.3-1.65 39.55-3.53 37.8-5.4 36.85-7.85 35.9-10.3 35.9-13L35.9-13Q35.9-15.75 36.85-18.2 37.8-20.65 39.55-22.53 41.3-24.4 43.72-25.48 46.15-26.55 49.1-26.55L49.1-26.55Q52-26.55 54.4-25.48 56.8-24.4 58.57-22.53 60.35-20.65 61.3-18.2 62.25-15.75 62.25-13L62.25-13Q62.25-10.3 61.3-7.85 60.35-5.4 58.6-3.53 56.85-1.65 54.42-0.58 52 0.5 49.05 0.5ZM40.4-12.95L40.4-12.95Q40.4-10.25 41.57-8.05 42.75-5.85 44.7-4.58 46.65-3.3 49.05-3.3L49.05-3.3Q51.45-3.3 53.42-4.6 55.4-5.9 56.57-8.13 57.75-10.35 57.75-13.05L57.75-13.05Q57.75-15.75 56.57-17.95 55.4-20.15 53.42-21.45 51.45-22.75 49.05-22.75L49.05-22.75Q46.65-22.75 44.7-21.43 42.75-20.1 41.57-17.9 40.4-15.7 40.4-12.95ZM90.25-15.6L90.25 0 85.85 0 85.85-14.6Q85.85-18.75 84.57-20.68 83.3-22.6 80.7-22.6L80.7-22.6Q78.9-22.6 77.12-21.7 75.35-20.8 73.97-19.28 72.6-17.75 72-15.75L72-15.75 72 0 67.6 0 67.6-26.1 71.6-26.1 71.6-20.5Q72.65-22.35 74.3-23.7 75.95-25.05 78.05-25.8 80.15-26.55 82.45-26.55L82.45-26.55Q84.7-26.55 86.22-25.73 87.75-24.9 88.62-23.43 89.5-21.95 89.87-19.95 90.25-17.95 90.25-15.6L90.25-15.6ZM108.84 0L104.04 0 93.79-26.1 98.39-26.1 106.59-4.2 114.79-26.1 119.09-26.1 108.84 0ZM134.14 0.5L134.14 0.5Q131.19 0.5 128.77-0.58 126.34-1.65 124.57-3.53 122.79-5.4 121.82-7.85 120.84-10.3 120.84-13.05L120.84-13.05Q120.84-16.75 122.54-19.8 124.24-22.85 127.27-24.7 130.29-26.55 134.19-26.55L134.19-26.55Q138.14-26.55 141.07-24.68 143.99-22.8 145.62-19.78 147.24-16.75 147.24-13.25L147.24-13.25Q147.24-12.75 147.22-12.28 147.19-11.8 147.14-11.55L147.14-11.55 125.49-11.55Q125.69-9 126.92-7.03 128.14-5.05 130.09-3.93 132.04-2.8 134.29-2.8L134.29-2.8Q136.69-2.8 138.82-4 140.94-5.2 141.74-7.15L141.74-7.15 145.54-6.1Q144.69-4.2 143.02-2.7 141.34-1.2 139.07-0.35 136.79 0.5 134.14 0.5ZM125.34-14.6L125.34-14.6 143.14-14.6Q142.94-17.15 141.69-19.1 140.44-21.05 138.49-22.15 136.54-23.25 134.19-23.25L134.19-23.25Q131.89-23.25 129.94-22.15 127.99-21.05 126.77-19.1 125.54-17.15 125.34-14.6ZM165.94-26.25L165.94-22.25Q162.64-22.2 160.11-20.58 157.59-18.95 156.54-16.1L156.54-16.1 156.54 0 152.14 0 152.14-26.1 156.24-26.1 156.24-20.05Q157.59-22.75 159.81-24.43 162.04-26.1 164.49-26.3L164.49-26.3Q164.99-26.3 165.34-26.3 165.69-26.3 165.94-26.25L165.94-26.25ZM179.24 0.5L179.24 0.5Q175.99 0.5 173.14-0.58 170.29-1.65 168.24-3.8L168.24-3.8 169.94-6.9Q172.19-4.8 174.44-3.9 176.69-3 179.04-3L179.04-3Q181.74-3 183.44-4.03 185.14-5.05 185.14-7.05L185.14-7.05Q185.14-8.5 184.26-9.2 183.39-9.9 181.79-10.38 180.19-10.85 177.99-11.45L177.99-11.45Q175.29-12.25 173.44-13.15 171.59-14.05 170.64-15.4 169.69-16.75 169.69-18.8L169.69-18.8Q169.69-21.3 170.99-23.03 172.29-24.75 174.56-25.65 176.84-26.55 179.74-26.55L179.74-26.55Q182.64-26.55 184.99-25.65 187.34-24.75 189.04-23L189.04-23 187.04-19.95Q185.49-21.55 183.64-22.33 181.79-23.1 179.49-23.1L179.49-23.1Q178.14-23.1 176.84-22.78 175.54-22.45 174.69-21.63 173.84-20.8 173.84-19.3L173.84-19.3Q173.84-18.05 174.51-17.32 175.19-16.6 176.51-16.1 177.84-15.6 179.74-15L179.74-15Q182.69-14.15 184.86-13.3 187.04-12.45 188.24-11.1 189.44-9.75 189.44-7.35L189.44-7.35Q189.44-3.65 186.64-1.58 183.84 0.5 179.24 0.5ZM206.23 0.5L206.23 0.5Q203.28 0.5 200.86-0.58 198.43-1.65 196.66-3.53 194.88-5.4 193.91-7.85 192.93-10.3 192.93-13.05L192.93-13.05Q192.93-16.75 194.63-19.8 196.33-22.85 199.36-24.7 202.38-26.55 206.28-26.55L206.28-26.55Q210.23-26.55 213.16-24.68 216.08-22.8 217.71-19.78 219.33-16.75 219.33-13.25L219.33-13.25Q219.33-12.75 219.31-12.28 219.28-11.8 219.23-11.55L219.23-11.55 197.58-11.55Q197.78-9 199.01-7.03 200.23-5.05 202.18-3.93 204.13-2.8 206.38-2.8L206.38-2.8Q208.78-2.8 210.91-4 213.03-5.2 213.83-7.15L213.83-7.15 217.63-6.1Q216.78-4.2 215.11-2.7 213.43-1.2 211.16-0.35 208.88 0.5 206.23 0.5ZM197.43-14.6L197.43-14.6 215.23-14.6Q215.03-17.15 213.78-19.1 212.53-21.05 210.58-22.15 208.63-23.25 206.28-23.25L206.28-23.25Q203.98-23.25 202.03-22.15 200.08-21.05 198.86-19.1 197.63-17.15 197.43-14.6ZM220.53 0L235.08-35.5 238.88-35.5 253.38 0 248.58 0 244.38-10.4 229.48-10.4 225.33 0 220.53 0ZM230.38-13.9L243.38-13.9 236.98-30.3 230.38-13.9ZM262.63 0L258.13 0 258.13-35.5 262.63-35.5 262.63 0Z" opacity="1" transform="matrix(1,0,0,1,0,0)" fill="black" class="wordmark-text-0" id="SvgjsPath3927"></path></svg></g></svg></g></svg></g></svg></g><g transform="matrix(1,0,0,1,132.98267423501767,0)"><svg viewBox="0 0 129.55465152996464 129.55465152996464" height="129.55465152996464" width="129.55465152996464"><g><svg></svg></g><g id="SvgjsG3926"><svg viewBox="0 0 129.55465152996464 129.55465152996464" height="129.55465152996464" width="129.55465152996464"><g><path d="M0 64.777c0-35.776 29.002-64.777 64.777-64.777 35.776 0 64.777 29.002 64.778 64.777 0 35.776-29.002 64.777-64.778 64.778-35.776 0-64.777-29.002-64.777-64.778zM64.777 124.602c33.04 0 59.825-26.784 59.825-59.825 0-33.04-26.784-59.825-59.825-59.824-33.04 0-59.825 26.784-59.824 59.824 0 33.04 26.784 59.825 59.824 59.825z" fill="black" stroke="transparent"></path><ellipse rx="64.1295525073325" ry="64.1295525073325" cx="64.77732576498232" cy="64.77732576498232" fill="black" stroke="transparent" stroke-width="0" fill-opacity="1"></ellipse></g><g transform="matrix(1,0,0,1,45.248033988292434,31.11695473708857)"><svg viewBox="0 0 39.058583553379776 67.3207420557875" height="67.3207420557875" width="39.058583553379776"><g><svg xmlns="http://www.w3.org/2000/svg" xmlns:xlink="http://www.w3.org/1999/xlink" version="1.1" x="0" y="0" viewBox="21.679106830508616 1 56.85827385947762 98" enable-background="new 0 0 100 100" xml:space="preserve" height="67.3207420557875" width="39.058583553379776" class="icon-dxe-0" data-fill-palette-color="quaternary" id="SvgjsSvg3925"><g fill="black"><path fill-rule="evenodd" clip-rule="evenodd" d="M30.545 28.822C29.38 36.039 30.875 43.672 37.045 47.863 30.758 19.81 45.756 8.664 59.646 1 43.466 24.046 76.542 24.644 78.423 51.13 80.028 73.71 64.507 91.317 46.639 99 46.845 76.175 24.089 73.067 21.801 54.397 20.905 47.094 25.062 33.766 30.545 28.822" fill="black"></path></g></svg></g></svg></g></svg></g></svg></g><g></g></svg></g><defs><mask></mask></defs></svg><rect width="395.52" height="210.40625581553428" fill="black" stroke="none" visibility="hidden"></rect></g></mask></svg><rect width="395.52" height="210.40625581553428" fill="black" stroke="none" visibility="hidden"></rect></g></mask><linearGradient x1="0" x2="1" y1="0.578" y2="0.595" id="61ca04bb-a2c5-43d5-9305-899c38e14a46"><stop stop-color="#6ee2f5" offset="0"></stop><stop stop-color="#6454f0" offset="1"></stop></linearGradient><rect width="395.52" height="210.40625581553428" fill="url(#61ca04bb-a2c5-43d5-9305-899c38e14a46)" mask="url(#a62d395f-d024-4986-bae1-29b84a6f72b7)" data-fill-palette-color="accent"></rect></svg><rect width="395.52" height="210.40625581553428" fill="none" stroke="none" visibility="hidden"></rect></g></svg></g></svg>